<?xml version="1.0" encoding="UTF-8" standalone="no"?>
<svg width="1887px" height="288px" viewBox="0 0 1887 288" version="1.1" xmlns="http://www.w3.org/2000/svg" xmlns:xlink="http://www.w3.org/1999/xlink" xmlns:sketch="http://www.bohemiancoding.com/sketch/ns">
    <!-- Generator: Sketch 3.2.2 (9983) - http://www.bohemiancoding.com/sketch -->
    <title>Untitled</title>
    <desc>Created with Sketch.</desc>
    <defs></defs>
    <g id="Page-1" stroke="none" stroke-width="1" fill="none" fill-rule="evenodd" sketch:type="MSPage">
        <g id="logo" sketch:type="MSLayerGroup">
            <g id="Page-1" sketch:type="MSShapeGroup">
                <g id="cn_logo">
                    <path d="M611.39,4.63 C616.94,3.44 622.28,1.17 628,0.87 L628,246 C623.07,245.99 618.13,246.03 613.21,245.96 C612.76,239.87 612.63,233.76 611.86,227.7 C608.96,233.2 605.64,238.88 599.99,241.98 C590.64,247.58 579.36,245.65 569.01,246.01 C559.54,246.32 549.03,245.04 542.04,237.97 C534.04,229.87 532.29,217.87 531.86,206.98 C531.75,177.97 531.83,148.96 531.82,119.96 C532,110.08 533.01,99.73 538.01,91 C541.61,84.64 547.97,80.09 555.04,78.39 C563.53,76.25 572.35,77.16 581,76.95 C588.5,76.8 596.69,77.35 602.79,82.24 C606.54,85 608.69,89.2 611.18,93.01 C611.58,63.56 611.16,34.09 611.39,4.63 L611.39,4.63 Z M567.29,93.33 C572.51,93.01 577.74,93.27 582.98,93.19 C588.02,93.27 593.34,92.62 598.06,94.85 C603.01,96.96 606.54,101.45 608.47,106.37 C611.25,113.2 611.39,120.72 611.34,128 C611.32,148.34 611.34,168.68 611.34,189.02 C611.3,198.88 612,209.36 607.38,218.43 C604.37,224.69 598.1,229.57 591.01,229.75 C583.65,229.88 576.29,229.8 568.94,229.79 C563.07,229.81 556.89,227.32 553.75,222.16 C549.26,215.02 548.96,206.24 549,198.07 C549,172.71 548.99,147.36 549.01,122.01 C549.05,114.77 549.8,107.07 553.87,100.86 C556.76,96.32 562.03,93.79 567.29,93.33 L567.29,93.33 Z" id="Fill-2" fill="#333533"></path>
                    <path d="M839.9,2.01 C845.12,1.12 850.45,1.35 855.74,1.33 C855.22,6.89 854.65,12.44 854.11,18 C849.67,18.08 844.84,17.46 840.9,19.93 C836.81,22.35 834.67,26.94 833.55,31.38 C831.73,38.43 832.02,45.76 832,52.97 C832.01,116.29 831.97,179.62 832.02,242.94 C832.25,250.86 832.74,259.69 838.1,266.03 C842.15,270.71 848.8,270.4 854.43,270.37 C854.06,275.92 853.49,281.45 853.12,287 C843.54,287.23 832.77,286.61 825.41,279.66 C816.85,271.61 815.2,259.09 814.84,247.93 C814.77,179.3 814.82,110.67 814.82,42.03 C814.95,32.28 816.01,21.97 821.34,13.54 C825.38,7.11 832.49,3.13 839.9,2.01" id="Fill-3" fill="#333533"></path>
                    <path d="M1845.08,1.29 C1853.72,1.36 1862.96,0.82 1870.78,5.23 C1877.53,8.83 1881.79,15.81 1883.66,23.07 C1886.67,34.13 1885.88,45.71 1886,57.05 L1886,238.04 C1886.04,248.51 1886.09,259.34 1882.28,269.26 C1879.89,275.57 1875.23,281.15 1869.01,283.91 C1862.34,286.88 1854.83,287.28 1847.65,286.85 C1847.33,281.34 1846.77,275.84 1846.41,270.34 C1851.86,270.4 1858.25,270.68 1862.28,266.29 C1867.89,260.02 1868.15,251.01 1868.55,243.04 C1868.63,185.04 1868.56,127.05 1868.59,69.06 C1868.45,59.42 1868.87,49.76 1868.32,40.13 C1867.67,33.32 1866.69,25.47 1861.05,20.83 C1856.93,17.38 1851.29,18.12 1846.33,17.9 C1845.92,12.36 1845.54,6.82 1845.08,1.29" id="Fill-4" fill="#333533"></path>
                    <path d="M267.77,21.74 C274.05,14.04 284.39,11.34 293.95,11.16 C309.97,10.99 326.01,11.13 342.04,11.09 C350.95,11.09 360.53,12.41 367.6,18.32 C374.93,24.36 377.95,33.96 379.11,43.07 C380.63,55.7 379.77,68.45 380,81.14 C373.94,81.13 367.88,81.14 361.82,81.14 C361.47,69.72 362.63,58.18 360.82,46.85 C359.81,41.08 357.46,34.94 352.25,31.72 C347.74,28.83 342.2,28.73 337.02,28.73 C324.04,28.78 311.06,28.67 298.09,28.79 C292.32,28.78 286.1,30.63 282.55,35.47 C277.85,41.91 277.15,50.25 277.01,57.97 C276.99,104.97 276.99,151.97 277.02,198.97 C277.15,206.69 277.82,215.04 282.53,221.49 C286.06,226.35 292.3,228.22 298.08,228.21 C311.71,228.32 325.34,228.22 338.97,228.25 C344.44,228.28 350.39,227.46 354.53,223.53 C359.65,218.61 360.93,211.17 361.57,204.41 C362.13,194.69 361.54,184.94 361.93,175.21 C367.94,175.29 373.95,175.27 379.96,175.22 C379.77,189.18 380.84,203.26 378.62,217.1 C377.16,225.77 373.49,234.71 366.03,239.88 C358.8,245.03 349.6,245.95 340.97,245.92 C325.31,245.86 309.65,246.01 293.99,245.84 C284.39,245.66 274.01,242.95 267.71,235.19 C260.44,226.2 259.18,214.11 258.84,202.96 C258.79,153.33 258.79,103.7 258.84,54.06 C259.18,42.89 260.45,30.74 267.77,21.74" id="Fill-5" fill="#333533"></path>
                    <path d="M915.11,18.39 C923.81,18.57 932.52,18.36 941.22,18.5 C952.8,47.41 964.52,76.26 976.15,105.14 C984.4,125.21 992.14,145.51 1000.72,165.44 C1000.76,116.48 1000.8,67.51 1000.7,18.55 C1004.66,18.38 1008.63,18.47 1012.61,18.44 C1012.54,87.7 1012.75,156.96 1012.5,226.21 C986.2,160.91 959.83,95.63 933.58,30.31 C931.2,30.33 928.84,30.26 926.48,30.42 C926.56,107.73 926.63,185.05 926.44,262.35 C922.62,262.28 918.81,262.29 915,262.3 C915.07,181 914.86,99.69 915.11,18.39" id="Fill-6" fill="#FF312E"></path>
                    <path d="M1020.32,18.45 C1024.26,18.46 1028.21,18.42 1032.17,18.51 C1032.1,99.77 1032.16,181.04 1032.14,262.3 C1023.34,262.32 1014.54,262.27 1005.75,262.33 C985.78,213.29 966.19,164.08 946.18,115.06 C945.97,164.14 946.16,213.22 946.09,262.3 C942.24,262.3 938.41,262.3 934.58,262.31 C934.64,193.46 934.48,124.6 934.66,55.76 C936.53,58.13 937.23,61.15 938.44,63.88 C963.56,126.07 988.51,188.34 1013.73,250.5 C1015.91,250.47 1018.1,250.45 1020.31,250.43 C1020.33,173.1 1020.31,95.78 1020.32,18.45 L958.162528,195.617674" id="Fill-7" fill="#FF312E"></path>
                    <path d="M1072,19 C1075.86,19 1079.73,18.94 1083.6,19.09 C1083.47,75.39 1083.58,131.69 1083.54,187.99 C1083.48,199.97 1083.26,212.27 1087.13,223.77 C1090.41,233.92 1097.47,243.23 1107.36,247.66 C1116.35,251.68 1126.58,252.2 1136.21,250.64 C1144.72,249.28 1152.88,245 1158.23,238.15 C1167.12,227.6 1169.4,213.27 1169.65,199.9 C1169.77,139.6 1169.67,79.3 1169.7,19 L1181.19,19 L1181.19,194.95 C1181.44,210.19 1179.71,226.18 1171.71,239.49 C1166.39,248.42 1158,255.33 1148.49,259.42 C1138.48,263.2 1127.44,263.62 1116.9,262.39 C1101.34,260.85 1087.22,250.63 1080.03,236.88 C1074.06,225.6 1072.3,212.65 1071.99,200.05 C1072.01,139.7 1072,79.35 1072,19" id="Fill-8" fill="#FF312E"></path>
                    <path d="M1091.58,19 L1103.09,19 L1103.09,192.02 C1103.13,202.46 1102.67,213.64 1108,223.04 C1110.65,228.17 1116.13,231.64 1121.93,231.7 C1129.02,232.08 1137.49,232.54 1142.63,226.65 C1149.12,219.09 1150.04,208.55 1150.04,198.99 C1150.08,139 1150.06,79 1150.05,19.01 C1153.94,18.99 1157.83,18.96 1161.73,19.06 C1161.62,78.03 1161.71,137 1161.68,195.97 C1161.65,205.57 1161.11,215.41 1157.55,224.43 C1155.16,230.48 1151.09,236.09 1145.3,239.26 C1137.63,243.52 1128.47,243.9 1119.93,243.01 C1111.48,242.04 1103.13,237.72 1098.66,230.3 C1092.21,219.79 1091.51,207.01 1091.58,195 L1091.58,19" id="Fill-9" fill="#FF312E"></path>
                    <path d="M1251.55,25.57 C1261.06,20.25 1272.18,18.48 1282.98,18.78 C1294.38,18.99 1306.09,21.79 1315.4,28.64 C1326,36.41 1332.95,48.4 1336.1,61.03 C1339.8,74.85 1339.16,89.26 1339.2,103.42 C1335.34,103.42 1331.48,103.42 1327.64,103.43 C1327.55,91.6 1328.2,79.64 1325.83,67.97 C1323.99,58.64 1320.29,49.34 1313.57,42.43 C1307.4,36.03 1298.79,32.4 1290.07,31.26 C1280.12,29.94 1269.66,30.49 1260.33,34.41 C1252.55,37.66 1246.15,43.8 1242.2,51.2 C1236.1,62.41 1234.65,75.44 1234.55,88.01 C1234.54,122.99 1234.54,157.98 1234.55,192.97 C1234.64,204.63 1235.83,216.59 1240.75,227.3 C1244.09,234.69 1249.57,241.18 1256.63,245.25 C1263.95,249.53 1272.56,251.15 1280.98,251.03 C1290.33,251.17 1299.98,249.14 1307.81,243.81 C1314.18,239.49 1319.01,233.13 1321.99,226.06 C1326.41,215.64 1327.55,204.18 1327.63,192.97 C1327.66,180.35 1327.62,167.74 1327.65,155.12 C1308.43,155.06 1289.22,155.11 1270,155.09 C1269.99,151.25 1269.99,147.42 1270,143.58 C1293.07,143.59 1316.13,143.57 1339.2,143.59 C1339.17,159.73 1339.21,175.87 1339.18,192.01 C1339.21,208.18 1337.03,225.17 1328.12,239.05 C1323.3,246.82 1315.89,252.57 1308.03,257.02 C1299.78,261.49 1290.21,262.59 1280.97,262.61 C1271.97,262.6 1262.66,261.59 1254.58,257.35 C1246.06,252.62 1238.18,246.23 1233.22,237.71 C1224.84,223.74 1222.9,206.99 1223,190.99 L1223,89.96 C1222.9,74.69 1224.74,58.82 1232.28,45.28 C1236.88,37.22 1243.36,30.07 1251.55,25.57" id="Fill-10" fill="#FF312E"></path>
                    <path d="M1403.96,25.9 C1413.29,20.5 1424.27,18.59 1434.95,18.76 C1446.45,18.83 1458.3,21.46 1467.8,28.22 C1478.75,35.96 1485.91,48.2 1489.11,61.08 C1492.8,74.88 1492.16,89.27 1492.19,103.42 L1480.63,103.42 C1480.56,91.55 1481.21,79.53 1478.79,67.82 C1476.96,58.54 1473.26,49.33 1466.6,42.45 C1460.44,36.05 1451.84,32.42 1443.13,31.26 C1433.42,29.98 1423.24,30.46 1414.06,34.11 C1406.18,37.21 1399.61,43.22 1395.53,50.6 C1389.14,61.95 1387.65,75.27 1387.55,88.08 C1387.64,125.05 1387.33,162.03 1387.71,199 C1388.22,210.1 1390.17,221.47 1395.78,231.22 C1400.22,238.98 1407.39,245.16 1415.83,248.16 C1423.87,251.15 1432.62,251.44 1441.09,250.71 C1451.12,249.69 1461.07,245.43 1467.73,237.69 C1476.58,227.67 1479.52,213.95 1480.38,200.96 C1480.96,185.69 1480.47,170.4 1480.66,155.13 C1461.44,155.05 1442.22,155.12 1423,155.09 C1422.99,151.25 1422.99,147.41 1423,143.57 C1446.07,143.59 1469.13,143.58 1492.2,143.58 C1492.17,159.74 1492.21,175.9 1492.18,192.06 C1492.21,208.23 1490.01,225.2 1481.11,239.08 C1476.27,246.85 1468.85,252.59 1460.99,257.05 C1452.75,261.49 1443.19,262.59 1433.97,262.61 C1424.99,262.6 1415.72,261.59 1407.65,257.39 C1398.87,252.54 1390.8,245.91 1385.83,237.06 C1377.08,222.01 1375.7,204.06 1376,187.02 C1375.99,154.36 1376.01,121.7 1375.99,89.03 C1375.98,74.06 1377.89,58.52 1385.3,45.25 C1389.78,37.4 1396.06,30.41 1403.96,25.9" id="Fill-11" fill="#FF312E"></path>
                    <path d="M1529,19 L1630,19 C1629.99,23 1629.99,27 1630,31 L1540.54,31 C1540.56,104.48 1540.53,177.96 1540.56,251.44 C1570.34,251.44 1600.13,251.51 1629.92,251.41 C1630.05,255.27 1629.99,259.13 1630,263 L1529,263 L1529,19" id="Fill-12" fill="#FF312E"></path>
                    <path d="M1665.75,19 C1711.74,19.04 1757.74,18.93 1803.73,19.05 C1803.65,23.02 1803.65,26.98 1803.73,30.94 C1757.74,31.07 1711.74,30.96 1665.75,31 C1665.74,27 1665.74,23 1665.75,19" id="Fill-13" fill="#FF312E"></path>
                    <path d="M10.33,30.29 C16.51,23.97 25.07,19.92 33.97,19.73 C44.66,19.61 55.37,19.71 66.06,19.68 C75.52,19.63 85.04,23.45 91.46,30.47 C97.44,37.1 101.04,46.04 100.71,55.02 C100.62,76.5 100.8,97.98 100.62,119.45 C81.11,119.21 61.59,119.41 42.07,119.35 C34.69,119.43 26.82,119.69 20.22,115.82 C8.46,110.5 0.78,97.79 1.01,84.96 C1.04,74.62 1.04,64.29 1.01,53.95 C0.91,45.25 4.41,36.63 10.33,30.29 L10.33,30.29 Z M21.82,54.05 C21.57,47.3 27.24,40.7 34.11,40.53 C45.07,40.34 56.05,40.46 67.01,40.47 C74.05,40.44 80.16,46.9 79.93,53.9 C80.11,66.94 79.93,79.98 80.02,93.02 C80.15,94.82 79.61,96.54 79.02,98.22 C64.37,98.83 49.68,98.34 35.02,98.48 C27.91,98.82 21.3,92.12 21.82,85 C21.8,74.69 21.79,64.37 21.82,54.05 L93.4618301,105.919181 L21.82,54.05 L21.82,54.05 Z" id="Fill-14" fill="#333533"></path>
                    <path d="M148.21,20.28 C155.77,19.27 163.42,19.82 171.02,19.68 C178.43,19.85 185.98,19.08 193.25,20.88 C207.29,24.36 218.47,37.45 219.09,52.02 C219.52,62.67 219.21,73.35 219.26,84.02 C219.34,93.52 215.56,103.01 208.79,109.69 C202.38,115.6 193.84,119.39 185.06,119.33 C163.21,119.41 141.36,119.26 119.52,119.41 C119.61,97.95 119.54,76.5 119.55,55.05 C119.63,45.58 122.99,35.6 130.56,29.52 C135.02,24.35 141.62,21.55 148.21,20.28 L148.21,20.28 Z M150.45,40.64 C160.27,40.16 170.15,40.59 179.99,40.44 C184.19,40.56 188.94,39.72 192.53,42.47 C195.44,44.9 198.41,48.02 198.42,52.07 C198.47,63.36 198.41,74.65 198.45,85.95 C198.68,91.96 193.45,97.03 187.95,98.42 C173.64,98.6 159.32,98.42 145,98.51 C143.11,98.58 140.38,98.35 140.46,95.86 C140.31,81.55 140.37,67.24 140.43,52.93 C140.24,47.1 145.01,42.04 150.45,40.64 L150.45,40.64 Z" id="Fill-15" fill="#333533"></path>
                    <path d="M1265.02,40.93 C1273.99,37.64 1283.99,37.59 1293.23,39.74 C1302.87,42.04 1310.91,49.28 1314.68,58.39 C1320.75,72.59 1319.5,88.39 1319.55,103.46 C1315.61,103.4 1311.67,103.41 1307.74,103.42 C1307.51,91.65 1308.67,79.63 1305.68,68.1 C1303.84,61.16 1299.72,53.98 1292.5,51.65 C1284.98,49.63 1276.86,49.61 1269.35,51.65 C1262.74,53.8 1258.59,60.1 1256.67,66.48 C1253.43,76.66 1254.23,87.5 1254.09,98.03 C1254.1,129.69 1254.07,161.35 1254.11,193 C1254.16,202.88 1254.66,213.4 1260.01,222.04 C1263.31,227.65 1269.63,231.12 1276.1,231.32 C1283.89,231.87 1293.05,231.95 1298.91,225.89 C1304.87,219.52 1306.79,210.53 1307.46,202.09 C1308.04,192.99 1307.57,183.86 1307.82,174.75 C1295.23,174.46 1282.64,174.64 1270.05,174.66 C1269.95,170.77 1269.99,166.88 1270,163 C1286.56,163.06 1303.12,162.88 1319.68,163.09 C1319.41,175.69 1319.91,188.29 1319.36,200.88 C1318.66,212.08 1316.3,223.97 1308.59,232.58 C1303.07,239.21 1294.43,242.23 1286.06,242.92 C1276.99,243.64 1267.3,242.72 1259.45,237.74 C1252.27,232.98 1247.6,225.15 1245.36,216.96 C1242.6,207.25 1242.51,197.06 1242.58,187.04 C1242.58,154.34 1242.57,121.64 1242.58,88.94 C1242.58,79.13 1243.3,69.11 1246.88,59.88 C1250.07,51.5 1256.46,44.07 1265.02,40.93" id="Fill-16" fill="#FF312E"></path>
                    <path d="M1417.94,40.96 C1426.94,37.62 1437,37.58 1446.28,39.76 C1455.9,42.06 1463.9,49.29 1467.68,58.37 C1473.73,72.59 1472.55,88.4 1472.52,103.49 C1468.58,103.39 1464.66,103.41 1460.74,103.43 C1460.53,91.93 1461.58,80.23 1458.91,68.94 C1457.13,61.72 1453.04,54.12 1445.55,51.67 C1438.25,49.66 1430.41,49.66 1423.07,51.44 C1417.18,53.04 1412.84,58.09 1410.72,63.64 C1406.61,73.54 1407.17,84.49 1407.09,94.99 C1407.1,127.67 1407.07,160.36 1407.11,193.04 C1407.15,202.89 1407.67,213.37 1412.98,222 C1416.28,227.64 1422.61,231.12 1429.11,231.32 C1436.9,231.86 1446.06,231.95 1451.91,225.89 C1458.61,218.69 1460.2,208.39 1460.64,198.94 C1460.74,190.8 1460.93,182.64 1460.57,174.51 C1448.08,174.78 1435.58,174.47 1423.08,174.67 C1422.93,170.78 1422.99,166.89 1423,163 C1439.56,163.06 1456.12,162.88 1472.67,163.09 C1472.43,175.48 1472.88,187.89 1472.39,200.28 C1471.76,211.69 1469.42,223.83 1461.57,232.61 C1456.52,238.62 1448.83,241.75 1441.18,242.67 C1432.85,243.68 1424.08,243.22 1416.31,239.82 C1408.39,236.38 1402.76,229.06 1399.75,221.14 C1396,211.24 1395.52,200.5 1395.58,190.02 C1395.59,156.35 1395.57,122.68 1395.58,89 C1395.57,78.95 1396.32,68.64 1400.13,59.23 C1403.39,51.15 1409.64,44.03 1417.94,40.96" id="Fill-17" fill="#FF312E"></path>
                    <path d="M1548.58,38.64 C1575.72,38.65 1602.86,38.64 1630,38.64 C1629.99,42.59 1629.99,46.53 1630,50.47 C1606.72,50.45 1583.43,50.53 1560.15,50.44 C1560.01,75.39 1560.13,100.35 1560.09,125.31 C1583.38,125.31 1606.67,125.35 1629.97,125.29 C1630.02,129.25 1629.99,133.22 1630,137.19 L1548.58,137.19 L1548.58,38.64" id="Fill-18" fill="#FF312E"></path>
                    <path d="M1665.75,38.64 C1687.48,38.65 1709.21,38.63 1730.95,38.65 C1730.93,113.43 1730.94,188.22 1730.94,263 L1718.96,263 C1718.92,192.15 1719.03,121.29 1718.9,50.44 C1701.18,50.53 1683.46,50.45 1665.75,50.48 C1665.75,46.53 1665.74,42.59 1665.75,38.64" id="Fill-19" fill="#FF312E"></path>
                    <path d="M1738.58,38.64 C1760.24,38.61 1781.9,38.73 1803.57,38.58 C1803.75,42.56 1803.73,46.56 1803.58,50.55 C1785.84,50.38 1768.11,50.51 1750.38,50.49 C1750.33,121.32 1750.37,192.16 1750.36,263 L1738.58,263 C1738.58,188.21 1738.59,113.42 1738.58,38.64" id="Fill-20" fill="#FF312E"></path>
                    <path d="M431.49,77.71 C442.24,76.29 453.13,77.24 463.94,76.95 C473.84,76.77 484.86,78.36 491.95,85.99 C500.35,95.09 501.56,108.19 501.97,120.01 C502.03,148 501.99,175.99 501.99,203.98 C501.74,214.17 500.65,224.99 494.76,233.65 C490.29,240.3 482.68,244.32 474.84,245.36 C466.61,246.51 458.28,245.81 450.01,246 C440.13,245.99 429.5,246.73 420.61,241.59 C413,237.36 408.44,229.25 406.62,220.95 C404.26,211.49 404.89,201.69 404.81,192.04 C404.83,167.7 404.77,143.36 404.84,119.03 C405.14,109.01 406.3,98.45 411.79,89.8 C416.08,83 423.65,78.85 431.49,77.71 L431.49,77.71 Z M439.25,93.35 C447.16,92.97 455.09,93.3 463.01,93.18 C468.98,92.95 475.68,94.44 479.37,99.53 C484.23,106.25 484.66,114.96 484.8,122.96 C484.77,149.95 484.9,176.95 484.74,203.94 C484.29,211.7 483.4,220.67 477.09,226.07 C470.56,231.26 461.72,229.5 454.02,229.81 C447.19,229.49 440.06,230.78 433.51,228.31 C429.18,226.69 426.06,222.82 424.51,218.56 C421.85,211.36 421.98,203.55 422,195.98 C422.01,170.98 421.97,145.99 422.02,120.99 C422.18,114 422.84,106.59 426.66,100.54 C429.33,96.21 434.29,93.82 439.25,93.35 L439.25,93.35 Z" id="Fill-23" fill="#333533"></path>
                    <path d="M680.04,78.98 C689.49,76.51 699.35,77.01 709.02,76.95 C717.89,76.95 727.09,77.06 735.41,80.51 C741.71,83.1 746.55,88.62 748.63,95.07 C752.51,106.65 751.14,119.04 751.42,131.04 C751.36,140.96 751.7,151.65 746.48,160.48 C743.34,165.71 737.7,168.86 731.91,170.25 C724.42,172.06 716.65,172.02 709.01,172 C698,172 687,171.99 676,172 C676.04,182.68 675.91,193.36 676.07,204.04 C676.39,212.07 677.59,221.37 684.38,226.66 C690.91,231.45 699.43,229.77 706.98,230.09 C714.72,229.99 724.05,231.27 729.8,224.82 C736.75,216.59 735.91,205.01 736,194.92 C741.38,194.9 746.76,194.91 752.14,194.92 C752.13,206.73 752.3,219.14 747.23,230.09 C743.93,237.35 736.99,242.47 729.31,244.28 C719.71,246.71 709.73,245.88 699.93,246.05 C690.88,246.04 681.25,245.52 673.36,240.59 C667.2,236.81 663.27,230.28 661.37,223.44 C658.3,212.55 658.83,201.14 658.81,189.95 L658.81,124.98 C658.85,113.76 658.16,101.84 663.36,91.52 C666.59,85.01 673.08,80.66 680.04,78.98 L680.04,78.98 Z M681.13,97.95 C684.61,94.11 690.02,92.88 695.03,92.94 C702.67,92.92 710.32,92.83 717.97,92.98 C723.63,92.98 729.66,95.42 732.47,100.6 C736.69,108.37 735.52,117.52 735.7,126.01 C735.57,133.57 736.55,141.78 732.64,148.64 C729.53,154.05 722.88,155.96 717,155.97 C703.33,156.04 689.67,155.98 676,156 C676.02,142.32 675.96,128.65 676.03,114.97 C676.19,109.04 677.05,102.57 681.13,97.95 L681.13,97.95 Z" id="Fill-24" fill="#333533"></path>
                    <path d="M9.74,149.67 C16.12,142.6 25.5,138.5 34.96,138.19 C56.9,138.17 78.84,138.25 100.78,138.15 C100.56,160.45 100.78,182.75 100.68,205.05 C100.26,213.24 96.77,221.14 91.35,227.26 C84.78,234.03 75.44,238.14 65.96,237.91 C54.62,237.81 43.28,238.04 31.95,237.8 C23.99,236.87 16.22,233.28 10.59,227.52 C4.58,220.9 0.76,212.04 1.01,203.02 C1.04,193.01 1.04,183 1.01,173 C0.93,164.49 4.24,156.1 9.74,149.67 L9.74,149.67 Z M30.5,159.69 C32.9,158.87 35.47,158.96 37.97,158.95 C50.99,159.03 64.01,158.89 77.03,159.01 C78.67,158.78 80.21,160.16 79.96,161.85 C80.06,175.57 79.95,189.29 80.02,203.01 C80.54,210.19 74.3,217.35 66.96,217.17 C57.65,217.25 48.33,217.14 39.02,217.21 C35.45,217.17 31.55,217.52 28.39,215.53 C24.84,213.17 21.75,209.42 21.85,204.94 C21.74,193.97 21.83,182.98 21.81,172.01 C21.53,166.53 25.54,161.56 30.5,159.69 L30.5,159.69 Z" id="Fill-28" fill="#333533"></path>
                    <path d="M119.6,138.13 C141.75,138.29 163.91,138.14 186.06,138.2 C199.18,138.59 211.81,147.06 216.59,159.39 C220.66,168.38 218.91,178.46 219.29,188 C218.92,197.35 220.56,207.15 216.93,216.06 C212.2,229.05 198.79,238.14 185,237.91 C174.99,237.89 164.97,237.88 154.96,237.91 C142.15,238.44 129.07,231.12 123.5,219.45 C120.65,214.47 119.55,208.69 119.55,203.01 C119.6,181.38 119.5,159.75 119.6,138.13 L119.6,138.13 Z M141.34,159.48 C142.7,158.6 144.46,159.11 145.99,158.94 C159,159.02 172.01,158.93 185.02,158.98 C192.01,158.75 198.64,164.97 198.42,172.05 C198.46,182.69 198.44,193.32 198.43,203.96 C198.68,210.73 192.72,216.94 185.97,217.13 C175.32,217.29 164.67,217.16 154.02,217.19 C146.99,217.51 140.19,211.26 140.41,204.11 C140.28,190.07 140.54,176.02 140.27,161.98 C140.15,160.92 140.51,160.09 141.34,159.48 L141.34,159.48 Z" id="Fill-29" fill="#333533"></path>
                    <path d="M1548.58,144.85 C1575.72,144.87 1602.86,144.85 1630,144.86 C1629.99,148.84 1630.02,152.81 1629.96,156.79 C1606.67,156.73 1583.38,156.77 1560.09,156.77 C1560.1,181.81 1560.09,206.86 1560.09,231.9 C1583.39,231.92 1606.69,231.9 1630,231.91 C1629.99,235.74 1629.99,239.58 1630,243.42 C1602.86,243.42 1575.71,243.41 1548.57,243.43 C1548.59,210.57 1548.57,177.71 1548.58,144.85" id="Fill-30" fill="#FF312E"></path>
                </g>
            </g>
        </g>
    </g>
</svg>